<svg width="96" height="96" viewBox="0 0 96 96" fill="none" xmlns="http://www.w3.org/2000/svg">
<g filter="url(#filter0_i_101_9)">
<path fill-rule="evenodd" clip-rule="evenodd" d="M48 0C21.48 0 0 21.48 0 48C0 69.24 13.74 87.18 32.82 93.54C35.22 93.96 36.12 92.52 36.12 91.26C36.12 90.12 36.06 86.34 36.06 82.32C24 84.54 20.88 79.38 19.92 76.68C19.38 75.3 17.04 71.04 15 69.9C13.32 69 10.92 66.78 14.94 66.72C18.72 66.66 21.42 70.2 22.32 71.64C26.64 78.9 33.54 76.86 36.3 75.6C36.72 72.48 37.98 70.38 39.36 69.18C28.68 67.98 17.52 63.84 17.52 45.48C17.52 40.26 19.38 35.94 22.44 32.58C21.96 31.38 20.28 26.46 22.92 19.86C22.92 19.86 26.94 18.6 36.12 24.78C39.96 23.7 44.04 23.16 48.12 23.16C52.2 23.16 56.28 23.7 60.12 24.78C69.3 18.54 73.32 19.86 73.32 19.86C75.96 26.46 74.28 31.38 73.8 32.58C76.86 35.94 78.72 40.2 78.72 45.48C78.72 63.9 67.5 67.98 56.82 69.18C58.56 70.68 60.06 73.56 60.06 78.06C60.06 84.48 60 89.64 60 91.26C60 92.52 60.9 94.02 63.3 93.54C72.8287 90.3229 81.1087 84.1987 86.9747 76.0295C92.8406 67.8602 95.9971 58.0571 96 48C96 21.48 74.52 0 48 0Z" fill="#F4F4F4" style="mix-blend-mode:lighten"/>
</g>
<defs>
<filter id="filter0_i_101_9" x="0" y="0" width="96" height="100" filterUnits="userSpaceOnUse" color-interpolation-filters="sRGB">
<feFlood flood-opacity="0" result="BackgroundImageFix"/>
<feBlend mode="normal" in="SourceGraphic" in2="BackgroundImageFix" result="shape"/>
<feColorMatrix in="SourceAlpha" type="matrix" values="0 0 0 0 0 0 0 0 0 0 0 0 0 0 0 0 0 0 127 0" result="hardAlpha"/>
<feOffset dy="6"/>
<feGaussianBlur stdDeviation="2"/>
<feComposite in2="hardAlpha" operator="arithmetic" k2="-1" k3="1"/>
<feColorMatrix type="matrix" values="0 0 0 0 0 0 0 0 0 0 0 0 0 0 0 0 0 0 0.25 0"/>
<feBlend mode="normal" in2="shape" result="effect1_innerShadow_101_9"/>
</filter>
</defs>
</svg>
