<svg width="96" height="96" viewBox="0 0 96 96" fill="none" xmlns="http://www.w3.org/2000/svg">
<g filter="url(#filter0_i_101_6)">
<path fill-rule="evenodd" clip-rule="evenodd" d="M4 11.352C4 9.40214 4.77458 7.53213 6.15335 6.15336C7.53212 4.77459 9.40213 4.00001 11.352 4.00001H84.64C85.6063 3.99843 86.5634 4.18746 87.4566 4.55628C88.3497 4.92509 89.1613 5.46645 89.845 6.14935C90.5286 6.83226 91.0709 7.6433 91.4407 8.53605C91.8105 9.42879 92.0005 10.3857 92 11.352V84.64C92.001 85.6065 91.8115 86.5637 91.4423 87.4569C91.073 88.3501 90.5313 89.1617 89.8481 89.8452C89.1648 90.5288 88.3535 91.071 87.4606 91.4408C86.5676 91.8105 85.6105 92.0005 84.644 92H11.352C10.3862 92 9.42983 91.8097 8.53759 91.44C7.64534 91.0703 6.83469 90.5284 6.15194 89.8452C5.46919 89.1621 4.92773 88.3512 4.55849 87.4587C4.18925 86.5663 3.99948 85.6098 4 84.644V11.352ZM38.832 37.552H50.748V43.536C52.468 40.096 56.868 37 63.48 37C76.156 37 79.16 43.852 79.16 56.424V79.712H66.332V59.288C66.332 52.128 64.612 48.088 60.244 48.088C54.184 48.088 51.664 52.444 51.664 59.288V79.712H38.832V37.552ZM16.832 79.164H29.664V37H16.832V79.16V79.164ZM31.5 23.248C31.5242 24.3467 31.3287 25.4392 30.925 26.4613C30.5212 27.4834 29.9174 28.4146 29.1489 29.2001C28.3804 29.9857 27.4628 30.6099 26.4498 31.036C25.4368 31.4622 24.349 31.6817 23.25 31.6817C22.151 31.6817 21.0632 31.4622 20.0502 31.036C19.0372 30.6099 18.1196 29.9857 17.3511 29.2001C16.5826 28.4146 15.9788 27.4834 15.575 26.4613C15.1713 25.4392 14.9758 24.3467 15 23.248C15.0475 21.0914 15.9375 19.0392 17.4795 17.5308C19.0215 16.0223 21.0929 15.1777 23.25 15.1777C25.4071 15.1777 27.4785 16.0223 29.0205 17.5308C30.5625 19.0392 31.4525 21.0914 31.5 23.248Z" fill="#F4F4F4" style="mix-blend-mode:lighten"/>
</g>
<defs>
<filter id="filter0_i_101_6" x="0" y="0" width="96" height="100" filterUnits="userSpaceOnUse" color-interpolation-filters="sRGB">
<feFlood flood-opacity="0" result="BackgroundImageFix"/>
<feBlend mode="normal" in="SourceGraphic" in2="BackgroundImageFix" result="shape"/>
<feColorMatrix in="SourceAlpha" type="matrix" values="0 0 0 0 0 0 0 0 0 0 0 0 0 0 0 0 0 0 127 0" result="hardAlpha"/>
<feOffset dy="6"/>
<feGaussianBlur stdDeviation="2"/>
<feComposite in2="hardAlpha" operator="arithmetic" k2="-1" k3="1"/>
<feColorMatrix type="matrix" values="0 0 0 0 0 0 0 0 0 0 0 0 0 0 0 0 0 0 0.25 0"/>
<feBlend mode="normal" in2="shape" result="effect1_innerShadow_101_6"/>
</filter>
</defs>
</svg>
